<?xml version="1.0" standalone="no"?>
<!DOCTYPE svg PUBLIC "-//W3C//DTD SVG 20010904//EN"
 "http://www.w3.org/TR/2001/REC-SVG-20010904/DTD/svg10.dtd">
<svg version="1.0" xmlns="http://www.w3.org/2000/svg"
 width="480.000000pt" height="488.000000pt" viewBox="0 0 480.000000 488.000000"
 preserveAspectRatio="xMidYMid meet">
<metadata>
Created by potrace 1.15, written by Peter Selinger 2001-2017
</metadata>
<g transform="translate(0.000000,488.000000) scale(0.100000,-0.100000)"
fill="#000000" stroke="none">
<path d="M3635 4330 c-11 -5 -148 -62 -305 -125 -467 -189 -735 -298 -739
-301 -3 -2 80 -668 95 -765 5 -29 3 -37 -12 -42 -17 -5 -420 -168 -658 -266
-55 -22 -102 -39 -104 -36 -5 4 -52 353 -89 645 -9 74 -18 137 -20 139 -2 3
-69 -22 -148 -54 -100 -40 -145 -63 -145 -74 0 -9 22 -187 50 -396 27 -209 46
-383 42 -387 -4 -4 -136 -60 -292 -124 -157 -63 -323 -131 -370 -150 -47 -19
-91 -38 -98 -43 -11 -7 -11 -34 4 -156 10 -81 23 -149 29 -151 6 -3 183 65
393 150 251 102 384 151 387 143 9 -30 68 -537 63 -542 -3 -3 -176 -75 -384
-160 -208 -85 -381 -158 -385 -162 -6 -7 28 -301 36 -311 1 -1 164 63 361 144
197 80 439 178 537 217 l179 72 -6 45 c-2 25 -26 203 -51 395 -26 193 -47 370
-48 394 l-2 45 215 87 c118 47 292 118 387 157 l172 70 6 -31 c9 -49 93 -693
101 -770 4 -37 10 -67 15 -67 8 0 282 109 287 115 2 1 -20 182 -48 401 -28
220 -52 416 -53 437 l-2 38 385 156 c212 86 387 158 388 159 5 3 -35 304 -40
310 -5 4 -197 -72 -622 -245 -94 -39 -152 -57 -156 -51 -10 16 -63 447 -58
462 3 7 23 19 44 27 22 8 127 49 234 93 107 44 240 98 295 120 199 81 206 85
201 110 -3 13 -13 83 -22 156 -9 72 -19 132 -23 131 -3 0 -15 -4 -26 -9z"/>
<path d="M3842 2031 c-52 -22 -96 -42 -99 -44 -6 -6 45 -425 55 -449 6 -15 19
-12 110 25 95 39 102 44 102 69 0 16 -3 28 -7 28 -4 0 -38 -12 -75 -27 -38
-14 -70 -24 -72 -22 -2 2 -7 36 -11 74 l-7 70 76 29 c64 24 76 32 76 52 0 12
-4 25 -9 28 -5 3 -41 -7 -80 -24 -80 -33 -76 -35 -86 56 l-6 61 76 29 c68 26
75 31 75 56 0 16 -5 28 -12 28 -7 0 -55 -18 -106 -39z"/>
<path d="M3633 1938 c-18 -9 -26 -35 -57 -197 -20 -103 -36 -196 -36 -207 0
-10 -4 -26 -10 -34 -7 -11 -11 -9 -19 12 -8 21 -155 292 -166 306 -1 1 -16 -3
-34 -9 -25 -9 -30 -15 -26 -30 5 -16 210 -377 220 -387 9 -10 65 32 70 51 3
12 25 121 50 242 24 121 47 230 50 243 6 24 -6 27 -42 10z"/>
<path d="M3163 1748 c-16 -8 -21 -17 -18 -32 2 -12 16 -115 31 -231 15 -115
28 -211 29 -213 2 -2 17 4 35 13 29 15 31 19 26 53 -6 32 -56 413 -56 420 0 5
-27 0 -47 -10z"/>
<path d="M2931 1658 c-52 -21 -97 -41 -99 -43 -4 -4 49 -457 54 -464 2 -2 17
2 34 9 31 13 31 13 23 69 -4 31 -8 78 -8 106 l0 50 69 27 c39 16 71 29 72 31
1 1 0 14 -3 29 l-5 26 -71 -29 c-39 -16 -74 -26 -78 -22 -4 5 -10 37 -14 73
l-7 65 77 29 c69 26 76 31 73 54 -2 14 -7 26 -13 27 -5 2 -53 -15 -104 -37z"/>
<path d="M2523 1495 c-35 -15 -34 -3 -13 -145 5 -35 6 -67 2 -71 -10 -9 -215
-89 -227 -89 -6 0 -16 41 -22 91 -7 50 -14 93 -16 95 -10 10 -57 -17 -57 -33
-1 -24 52 -447 56 -452 2 -2 17 2 34 9 34 14 33 12 16 134 l-12 88 45 20 c58
25 190 78 195 78 2 0 9 -45 16 -100 14 -105 23 -118 63 -87 15 11 14 30 -14
237 -16 124 -30 228 -32 232 -1 3 -16 0 -34 -7z"/>
<path d="M1955 1256 c-65 -21 -99 -42 -144 -91 -80 -87 -107 -193 -77 -297 17
-60 64 -112 112 -124 61 -15 176 26 248 88 l37 33 -13 98 c-6 53 -15 97 -18
97 -3 0 -39 -13 -80 -29 -58 -22 -76 -33 -78 -50 -5 -29 18 -35 62 -17 19 8
37 12 40 8 2 -4 7 -28 11 -53 6 -42 5 -47 -22 -65 -46 -31 -83 -44 -127 -44
-33 0 -48 6 -68 28 -96 103 -42 299 97 352 17 6 58 12 93 12 51 0 62 3 58 15
-3 8 -6 23 -6 34 0 16 -7 19 -42 18 -24 0 -61 -6 -83 -13z"/>
<path d="M1543 1088 c-16 -8 -21 -17 -18 -32 3 -12 16 -111 30 -221 14 -110
28 -205 30 -212 3 -9 11 -9 34 0 17 6 31 14 31 17 0 4 -13 107 -30 230 -16
123 -30 225 -30 227 0 6 -25 1 -47 -9z"/>
<path d="M1362 1014 c-25 -10 -32 -18 -28 -31 3 -10 10 -54 16 -97 8 -63 8
-81 -2 -88 -17 -10 -217 -88 -228 -88 -4 0 -10 29 -14 65 -12 114 -16 126 -40
119 -11 -3 -25 -10 -30 -15 -7 -7 37 -415 49 -456 3 -9 12 -10 36 -1 31 10 31
12 25 57 -4 25 -9 73 -13 107 l-6 60 117 48 c65 26 119 46 121 44 3 -2 10 -48
16 -102 l12 -97 26 6 c14 4 29 10 33 14 6 5 -47 460 -55 467 -1 1 -17 -4 -35
-12z"/>
</g>
</svg>
